<svg width="353.581" height="339.609">
<path d="M240.925,101.927c8.226,8.688-3.6,20.632-3.6,20.632s-3.718-0.415-3.596-4.823c0,0-0.325-2.145,3.091-2.42
	c0,0-3.387-0.34-3.387-4.594c0,0-0.928,3.925-4.393,3.647c0,0,2.742,0.808,2.264,2.798c-0.365,1.535-1.321,3.463-4.923,3.331
	c-3.63-15.035,8.673-24.638,8.673-24.638c-4.473-0.992-9.94-6.371-13.199-11.991c-3.258,5.62-8.724,10.999-13.202,11.991
	c0,0,12.309,9.603,8.677,24.638c-3.606,0.133-4.558-1.796-4.925-3.331c-0.478-1.99,2.264-2.798,2.264-2.798
	c-3.472,0.278-4.392-3.647-4.392-3.647c0,4.254-3.39,4.594-3.39,4.594c3.42,0.275,3.089,2.42,3.089,2.42
	c0.135,4.408-3.59,4.823-3.59,4.823s-11.826-11.944-3.6-20.632c0,0-8.894,0.415-19.721-9.34c0,0,19.841,30.243,20.048,36.449H240.6
	c0.21-6.206,20.044-36.449,20.044-36.449C249.82,102.342,240.925,101.927,240.925,101.927z"/>
</svg>